<mxfile host="Electron" modified="2022-04-17T18:44:50.305Z" agent="5.0 (Windows NT 10.0; Win64; x64) AppleWebKit/537.36 (KHTML, like Gecko) draw.io/17.4.2 Chrome/100.0.4896.60 Electron/18.0.1 Safari/537.36" etag="D-X2pzplpSpk9QGWdCjJ" compressed="false" version="17.4.2" type="device">
  <diagram id="WApuDTylpNGpwIu_taJQ" name="Page Structure">
    <mxGraphModel dx="1102" dy="1025" grid="1" gridSize="10" guides="1" tooltips="1" connect="1" arrows="1" fold="1" page="1" pageScale="1" pageWidth="850" pageHeight="1100" math="0" shadow="0">
      <root>
        <mxCell id="0" />
        <mxCell id="1" parent="0" />
        <mxCell id="LehH4DPTb1Su1F3Ymp_B-1" value="" style="rounded=0;whiteSpace=wrap;html=1;" parent="1" vertex="1">
          <mxGeometry x="40" y="40" width="640" height="470" as="geometry" />
        </mxCell>
        <object label="Root" id="twdFy1Z7E0Htx65alsVq-1">
          <mxCell parent="0" />
        </object>
        <UserObject label="Header" link="#header" tooltip="Text and icon of the root action with a link to the root action location" id="LehH4DPTb1Su1F3Ymp_B-2">
          <mxCell style="rounded=0;whiteSpace=wrap;html=1;align=left;fillColor=#dae8fc;strokeColor=#6c8ebf;" parent="twdFy1Z7E0Htx65alsVq-1" vertex="1">
            <mxGeometry x="50" y="50" width="620" height="40" as="geometry" />
          </mxCell>
        </UserObject>
        <UserObject label="Root Navigation" tooltip="Root navigation is built from the root action children starting with index 1, i.e. principal&#39;s siblings" link="#root-navigation" id="LehH4DPTb1Su1F3Ymp_B-3">
          <mxCell style="rounded=1;whiteSpace=wrap;html=1;fillColor=#C4D1E3;strokeColor=#6c8ebf;" parent="twdFy1Z7E0Htx65alsVq-1" link="#root-navigation" tooltip="Root navigation is built from the root action children starting with index 1, i.e. principal&#39;s siblings" vertex="1">
            <mxGeometry x="540" y="60" width="120" height="20" as="geometry" />
          </mxCell>
        </UserObject>
        <UserObject label="Footer" link="#footer" tooltip="Built from the root action navigation actions" id="LehH4DPTb1Su1F3Ymp_B-6">
          <mxCell style="rounded=0;whiteSpace=wrap;html=1;align=center;fillColor=#dae8fc;strokeColor=#6c8ebf;" parent="twdFy1Z7E0Htx65alsVq-1" link="#footer" tooltip="Footer is built from the root action navigation actions" vertex="1">
            <mxGeometry x="50" y="474" width="620" height="26" as="geometry" />
          </mxCell>
        </UserObject>
        <object label="Principal" id="twdFy1Z7E0Htx65alsVq-2">
          <mxCell parent="0" />
        </object>
        <UserObject label="Principal" link="#principal" tooltip="Principal action&#39;s icon text and link" id="LehH4DPTb1Su1F3Ymp_B-4">
          <mxCell style="rounded=0;whiteSpace=wrap;html=1;align=left;fillColor=#d5e8d4;strokeColor=#82b366;" parent="twdFy1Z7E0Htx65alsVq-2" link="#principal" tooltip="Principal action&#39;s icon text and link" vertex="1">
            <mxGeometry x="50" y="94" width="620" height="40" as="geometry" />
          </mxCell>
        </UserObject>
        <UserObject label="Principal Navigation" link="#principal-navigation" tooltip="Principal navigation is built from the principal action navigation items" id="LehH4DPTb1Su1F3Ymp_B-5">
          <mxCell style="rounded=1;whiteSpace=wrap;html=1;fillColor=#C0D1BF;strokeColor=#82b366;" parent="twdFy1Z7E0Htx65alsVq-2" link="#principal-navigation" tooltip="Principal navigation is built from the principal action navigation items" vertex="1">
            <mxGeometry x="110" y="104" width="280" height="20" as="geometry" />
          </mxCell>
        </UserObject>
        <UserObject label="Navigation&lt;br&gt;Panel" link="#navigation-panel" tooltip="Navigation panel is built from the principal action child actions" id="LehH4DPTb1Su1F3Ymp_B-8">
          <mxCell style="rounded=0;whiteSpace=wrap;html=1;align=center;fillColor=#d5e8d4;strokeColor=#82b366;" parent="twdFy1Z7E0Htx65alsVq-2" link="#navigation-panel" tooltip="Navigation panel is built from the principal action child actions" vertex="1">
            <mxGeometry x="50" y="138" width="80" height="332" as="geometry" />
          </mxCell>
        </UserObject>
        <object label="Active" id="twdFy1Z7E0Htx65alsVq-3">
          <mxCell parent="0" />
        </object>
        <UserObject label="Content Panel" link="#content-panel" tooltip="Content panel is built from the active action and its contained actions" id="LehH4DPTb1Su1F3Ymp_B-9">
          <mxCell style="rounded=0;whiteSpace=wrap;html=1;align=center;fillColor=#fff2cc;strokeColor=#d6b656;" parent="twdFy1Z7E0Htx65alsVq-3" link="#content-panel" tooltip="Content panel is built from the active action and its contained actions" vertex="1">
            <mxGeometry x="134" y="138" width="536" height="332" as="geometry" />
          </mxCell>
        </UserObject>
        <UserObject label="Content&lt;br&gt;Left&lt;br&gt;Navigation&lt;br&gt;Panel" tooltip="Built from leftNavigation actions of the active action" link="#content-left-navigation-panel" id="LehH4DPTb1Su1F3Ymp_B-14">
          <mxCell style="rounded=0;whiteSpace=wrap;html=1;fillColor=#ffe6cc;strokeColor=#d79b00;" parent="twdFy1Z7E0Htx65alsVq-3" link="#content-left-navigation-panel" tooltip="Built from leftNavigation actions of the active action" vertex="1">
            <mxGeometry x="139" y="196" width="80" height="270" as="geometry" />
          </mxCell>
        </UserObject>
        <UserObject label="Content&lt;br&gt;Float&lt;br&gt;Left&lt;br&gt;Navigation&lt;br&gt;Panel" link="#content-float-left-navigation-panel" tooltip="Built from floatLeftNavigation actions of the active action" id="LehH4DPTb1Su1F3Ymp_B-19">
          <mxCell style="rounded=0;whiteSpace=wrap;html=1;fillColor=#ffe6cc;strokeColor=#d79b00;" parent="twdFy1Z7E0Htx65alsVq-3" link="#content-float-left-navigation-panel" tooltip="Built from floatLeftNavigation actions of the active action" vertex="1">
            <mxGeometry x="223" y="196" width="80" height="94" as="geometry" />
          </mxCell>
        </UserObject>
        <UserObject label="Title" tooltip="Active action icon and text" link="#title" id="LehH4DPTb1Su1F3Ymp_B-11">
          <mxCell style="rounded=1;whiteSpace=wrap;html=1;fillColor=#ffe6cc;strokeColor=#d79b00;align=left;" parent="twdFy1Z7E0Htx65alsVq-3" link="#title" tooltip="Active action icon and text" vertex="1">
            <mxGeometry x="140" y="170" width="110" height="20" as="geometry" />
          </mxCell>
        </UserObject>
        <UserObject label="Breadcrumb" tooltip="Shows the active action path" link="#breadcrumb" id="LehH4DPTb1Su1F3Ymp_B-10">
          <mxCell style="rounded=1;whiteSpace=wrap;html=1;fillColor=#ffe6cc;strokeColor=#d79b00;align=left;perimeterSpacing=0;" parent="twdFy1Z7E0Htx65alsVq-3" link="#breadcrumb" tooltip="Shows the active action path" vertex="1">
            <mxGeometry x="140" y="143" width="520" height="20" as="geometry" />
          </mxCell>
        </UserObject>
        <UserObject label="Active action navigation" tooltip="Built from navigation actions of the current action" link="#active-action-navigation" id="LehH4DPTb1Su1F3Ymp_B-12">
          <mxCell style="rounded=1;whiteSpace=wrap;html=1;fillColor=#ffe6cc;strokeColor=#d79b00;align=center;" parent="twdFy1Z7E0Htx65alsVq-3" link="#active-action-navigation" tooltip="Built from navigation actions of the current action" vertex="1">
            <mxGeometry x="515" y="170" width="150" height="20" as="geometry" />
          </mxCell>
        </UserObject>
        <UserObject label="Content&lt;br&gt;Float&lt;br&gt;Right&lt;br&gt;Navigation&lt;br&gt;Panel" link="#content-float-right-navigation-panel" tooltip="Built from floatRightNavigation actions of the active action" id="LehH4DPTb1Su1F3Ymp_B-17">
          <mxCell style="rounded=0;whiteSpace=wrap;html=1;fillColor=#ffe6cc;strokeColor=#d79b00;" parent="twdFy1Z7E0Htx65alsVq-3" link="#content-float-right-navigation-panel" tooltip="Built from floatRightNavigation actions of the active action" vertex="1">
            <mxGeometry x="500" y="196" width="80" height="94" as="geometry" />
          </mxCell>
        </UserObject>
        <UserObject label="Content&lt;br&gt;Right&lt;br&gt;Navigation&lt;br&gt;Panel" link="#content-right-navigation-panel" tooltip="Built from rightNavigation actions of the active action" id="LehH4DPTb1Su1F3Ymp_B-18">
          <mxCell style="rounded=0;whiteSpace=wrap;html=1;fillColor=#ffe6cc;strokeColor=#d79b00;" parent="twdFy1Z7E0Htx65alsVq-3" link="#content-right-navigation-panel" tooltip="Built from rightNavigation actions of the active action" vertex="1">
            <mxGeometry x="585" y="196" width="80" height="270" as="geometry" />
          </mxCell>
        </UserObject>
        <object label="Section" id="twdFy1Z7E0Htx65alsVq-4">
          <mxCell parent="0" />
        </object>
        <UserObject label="Section" link="#section" tooltip="Sections actions are rendered as nested content panels" id="LehH4DPTb1Su1F3Ymp_B-20">
          <mxCell style="rounded=0;whiteSpace=wrap;html=1;fillColor=#ffe6cc;strokeColor=#d79b00;" parent="twdFy1Z7E0Htx65alsVq-4" link="#section" tooltip="Sections actions are rendered nested content panels" vertex="1">
            <mxGeometry x="223" y="335" width="357" height="130" as="geometry" />
          </mxCell>
        </UserObject>
        <UserObject label="Section Title" tooltip="Section&#39;s icon and text" link="#section-title" id="LehH4DPTb1Su1F3Ymp_B-21">
          <mxCell style="rounded=1;whiteSpace=wrap;html=1;fillColor=#E3CDB6;strokeColor=#d79b00;align=left;" parent="twdFy1Z7E0Htx65alsVq-4" link="#section-title" tooltip="Section&#39;s icon and text" vertex="1">
            <mxGeometry x="230" y="340" width="110" height="20" as="geometry" />
          </mxCell>
        </UserObject>
        <UserObject label="Section Navigation" link="#section-navigation" tooltip="Built from navigation actions of the section action" id="LehH4DPTb1Su1F3Ymp_B-22">
          <mxCell style="rounded=1;whiteSpace=wrap;html=1;fillColor=#E3CDB6;strokeColor=#d79b00;align=left;" parent="twdFy1Z7E0Htx65alsVq-4" link="#section-navigation" tooltip="Built from navigation actions of the section action" vertex="1">
            <mxGeometry x="467" y="340" width="110" height="20" as="geometry" />
          </mxCell>
        </UserObject>
        <UserObject label="Section&lt;br&gt;Left&lt;br&gt;Navigation&lt;br&gt;Panel" link="#section-left-navigation-panel" tooltip="Built from leftNavigation actions of the section action" id="LehH4DPTb1Su1F3Ymp_B-23">
          <mxCell style="rounded=0;whiteSpace=wrap;html=1;fillColor=#E3CDB6;strokeColor=#d79b00;" parent="twdFy1Z7E0Htx65alsVq-4" link="#section-left-navigation-panel" tooltip="Built from leftNavigation actions of the section action" vertex="1">
            <mxGeometry x="228" y="366" width="60" height="94" as="geometry" />
          </mxCell>
        </UserObject>
        <UserObject label="Section&lt;br&gt;Right&lt;br&gt;Navigation&lt;br&gt;Panel" link="#section-right-navigation-panel" tooltip="Built from rightNavigation actions of the section action" id="LehH4DPTb1Su1F3Ymp_B-24">
          <mxCell style="rounded=0;whiteSpace=wrap;html=1;fillColor=#E3CDB6;strokeColor=#d79b00;" parent="twdFy1Z7E0Htx65alsVq-4" link="#section-right-navigation-panel" tooltip="Built from rightNavigation actions of the section action" vertex="1">
            <mxGeometry x="515" y="366" width="60" height="94" as="geometry" />
          </mxCell>
        </UserObject>
        <UserObject label="Section&lt;br&gt;Float&lt;br&gt;Right&lt;br&gt;Navigation&lt;br&gt;Panel" tooltip="Built from floatRightNavigation actions of the section action" link="#section-float-right-navigation-panel" id="LehH4DPTb1Su1F3Ymp_B-26">
          <mxCell style="rounded=0;whiteSpace=wrap;html=1;fillColor=#E3CDB6;strokeColor=#d79b00;" parent="twdFy1Z7E0Htx65alsVq-4" link="#section-float-right-navigation-panel" tooltip="Built from floatRightNavigation actions of the section action" vertex="1">
            <mxGeometry x="452" y="366" width="60" height="74" as="geometry" />
          </mxCell>
        </UserObject>
        <UserObject label="Section&lt;br&gt;Float&lt;br&gt;Left&lt;br&gt;Navigation&lt;br&gt;Panel" link="#section-float-left-navigation-panel" tooltip="Built from floatLeftNavigation actions of the section action" id="LehH4DPTb1Su1F3Ymp_B-27">
          <mxCell style="rounded=0;whiteSpace=wrap;html=1;fillColor=#E3CDB6;strokeColor=#d79b00;" parent="twdFy1Z7E0Htx65alsVq-4" link="#section-float-left-navigation-panel" tooltip="Built from floatLeftNavigation actions of the active action" vertex="1">
            <mxGeometry x="291" y="366" width="60" height="74" as="geometry" />
          </mxCell>
        </UserObject>
      </root>
    </mxGraphModel>
  </diagram>
</mxfile>
